<?xml version="1.0" standalone="no"?>
<!DOCTYPE svg PUBLIC "-//W3C//DTD SVG 20010904//EN"
 "http://www.w3.org/TR/2001/REC-SVG-20010904/DTD/svg10.dtd">
<svg version="1.0" xmlns="http://www.w3.org/2000/svg"
 width="1080.000000pt" height="1080.000000pt" viewBox="0 0 1080.000000 1080.000000"
 preserveAspectRatio="xMidYMid meet">
<metadata>
Created by potrace 1.14, written by Peter Selinger 2001-2017
</metadata>
<g transform="translate(0.000000,1080.000000) scale(0.100000,-0.100000)"
fill="#000000" stroke="none">
<path d="M2721 9380 c-171 -27 -288 -65 -451 -145 -168 -81 -257 -145 -409
-290 -458 -439 -603 -1118 -367 -1723 45 -114 92 -202 168 -314 l59 -86 -53
-84 c-443 -689 -719 -1512 -758 -2260 -57 -1080 355 -1953 1205 -2558 98 -69
290 -186 415 -252 178 -94 575 -257 745 -305 28 -8 82 -23 120 -35 245 -70
467 -119 715 -157 69 -11 136 -22 150 -25 14 -4 95 -13 180 -21 85 -8 169 -17
185 -20 158 -24 943 -33 1275 -15 466 26 1019 113 1395 220 172 49 321 95 345
109 8 4 39 14 68 21 28 8 52 17 52 21 0 4 12 10 27 14 15 3 46 15 70 26 23 10
45 19 48 19 6 0 26 9 153 66 29 13 57 24 62 24 6 0 10 4 10 8 0 5 18 15 40 22
22 7 40 17 40 22 0 4 5 8 11 8 15 0 173 90 275 157 45 29 85 53 90 53 5 0 15
9 22 20 7 11 17 20 23 20 5 0 15 5 22 10 7 6 30 24 52 40 22 16 47 36 56 45 9
8 21 15 27 15 6 0 15 7 19 15 5 8 22 25 39 37 63 46 232 206 294 276 40 46
126 148 135 160 6 7 17 21 25 31 30 35 80 110 80 120 0 6 3 11 8 11 4 0 21 23
37 51 17 28 35 56 41 62 5 7 17 27 25 44 7 18 17 33 20 33 3 0 12 18 19 40 7
22 17 40 21 40 5 0 14 18 20 40 7 22 16 40 20 40 5 0 14 18 20 40 7 22 15 40
19 40 3 0 12 23 19 50 7 28 16 50 20 50 4 0 14 25 21 55 7 30 16 55 20 55 4 0
13 29 20 65 7 36 15 65 19 65 4 0 13 36 20 80 8 44 17 82 21 85 4 3 13 51 20
107 7 57 16 108 21 113 16 22 32 392 24 590 -11 317 -42 528 -124 860 -37 151
-110 388 -141 460 -5 11 -30 74 -56 140 -56 144 -75 187 -165 370 -78 157
-149 293 -183 345 -103 159 -138 224 -130 236 227 328 314 571 331 930 6 141
-13 325 -47 439 -74 245 -149 399 -275 566 -215 280 -517 483 -856 573 -101
27 -314 56 -409 56 -178 0 -424 -50 -598 -121 -207 -84 -370 -195 -534 -361
l-107 -109 -78 24 c-204 65 -499 124 -743 149 -277 28 -738 10 -1000 -39 -120
-22 -360 -80 -450 -109 l-76 -24 -130 128 c-143 142 -273 235 -426 307 -294
137 -624 184 -937 135z m3129 -879 c242 -38 481 -97 595 -147 17 -7 62 -25
100 -39 106 -41 317 -144 440 -215 576 -332 1190 -888 1639 -1484 148 -197
323 -507 441 -781 25 -60 52 -123 59 -140 8 -16 26 -66 41 -110 14 -44 30 -87
34 -95 17 -34 98 -310 107 -365 4 -22 10 -47 15 -56 5 -9 13 -50 19 -90 6 -41
16 -88 21 -105 11 -36 37 -252 49 -419 11 -132 2 -452 -11 -461 -5 -3 -9 -24
-10 -47 0 -70 -53 -352 -69 -372 -4 -5 -13 -34 -20 -64 -7 -30 -19 -66 -26
-80 -8 -14 -17 -41 -20 -58 -3 -18 -10 -33 -14 -33 -4 0 -11 -12 -14 -27 -10
-39 -137 -293 -148 -293 -4 0 -8 -5 -8 -12 0 -6 -11 -26 -25 -44 -14 -18 -25
-38 -25 -44 0 -6 -7 -13 -15 -16 -8 -4 -15 -12 -15 -18 0 -7 -8 -21 -18 -32
-10 -10 -23 -27 -28 -36 -32 -56 -294 -329 -383 -399 -24 -19 -48 -39 -55 -44
-6 -6 -33 -26 -61 -45 -27 -19 -54 -41 -58 -47 -4 -7 -13 -13 -18 -13 -6 0
-25 -11 -43 -25 -18 -14 -38 -25 -44 -25 -7 0 -12 -5 -12 -10 0 -6 -10 -14
-22 -19 -13 -5 -48 -25 -78 -45 -30 -20 -64 -39 -75 -42 -11 -4 -22 -10 -25
-14 -7 -9 -172 -88 -347 -166 -17 -8 -34 -14 -38 -14 -3 0 -25 -9 -48 -19 -24
-11 -56 -23 -72 -27 -17 -4 -34 -10 -40 -14 -21 -15 -257 -86 -415 -125 -58
-15 -118 -30 -135 -35 -16 -5 -68 -16 -115 -24 -47 -8 -92 -17 -100 -20 -15
-6 -139 -25 -325 -51 -370 -50 -758 -70 -1200 -61 -729 16 -1262 93 -1820 266
-563 174 -1062 464 -1393 809 -609 636 -794 1493 -546 2521 126 520 394 1106
680 1486 499 663 1196 1269 1823 1584 359 181 670 270 1131 324 19 2 163 3
320 1 229 -3 312 -7 420 -24z"/>
<path d="M4680 7196 c-738 -233 -1319 -798 -1560 -1517 -87 -262 -121 -477
-121 -769 0 -170 4 -243 21 -350 60 -387 195 -724 410 -1029 l52 -74 664 664
664 664 -2 1219 c-2 802 -6 1220 -13 1222 -5 2 -57 -12 -115 -30z"/>
<path d="M5966 7223 c-3 -3 -6 -553 -6 -1221 l0 -1214 663 -664 664 -664 20
23 c44 47 166 247 227 371 308 628 327 1351 54 1996 -262 617 -797 1113 -1429
1323 -153 51 -183 59 -193 50z"/>
<path d="M4886 3231 c-269 -269 -486 -493 -482 -499 18 -30 336 -134 521 -171
201 -40 508 -53 725 -31 216 23 487 94 670 176 l62 27 -494 494 c-271 271
-497 493 -503 493 -6 0 -230 -220 -499 -489z"/>
</g>
</svg>
